<mxfile host="Electron" agent="Mozilla/5.0 (Windows NT 10.0; Win64; x64) AppleWebKit/537.36 (KHTML, like Gecko) draw.io/27.0.9 Chrome/134.0.6998.205 Electron/35.4.0 Safari/537.36" version="27.0.9">
  <diagram name="Page-1" id="K8oqrOjbprnLCFBcYYAL">
    <mxGraphModel dx="1028" dy="707" grid="1" gridSize="10" guides="1" tooltips="1" connect="1" arrows="1" fold="1" page="1" pageScale="1" pageWidth="827" pageHeight="1169" math="0" shadow="0">
      <root>
        <mxCell id="0" />
        <mxCell id="1" parent="0" />
        <mxCell id="lJGqsRxKfi9Q2ybrlhgW-3" value="RoboSAPIENS Adaptive Plaftorm Dashboard" style="rounded=1;whiteSpace=wrap;html=1;verticalAlign=top;" vertex="1" parent="1">
          <mxGeometry x="15" y="110" width="780" height="540" as="geometry" />
        </mxCell>
        <mxCell id="lJGqsRxKfi9Q2ybrlhgW-4" value="Components Activation Gannt chart&amp;nbsp;" style="rounded=1;whiteSpace=wrap;html=1;verticalAlign=top;" vertex="1" parent="1">
          <mxGeometry x="40" y="150" width="730" height="110" as="geometry" />
        </mxCell>
        <mxCell id="lJGqsRxKfi9Q2ybrlhgW-5" value="Proccessor 1&amp;nbsp;" style="rounded=1;whiteSpace=wrap;html=1;verticalAlign=top;" vertex="1" parent="1">
          <mxGeometry x="50" y="280" width="180" height="240" as="geometry" />
        </mxCell>
        <mxCell id="lJGqsRxKfi9Q2ybrlhgW-7" value="Proccessor 2&amp;nbsp;" style="rounded=1;whiteSpace=wrap;html=1;verticalAlign=top;" vertex="1" parent="1">
          <mxGeometry x="260" y="280" width="180" height="240" as="geometry" />
        </mxCell>
        <mxCell id="lJGqsRxKfi9Q2ybrlhgW-8" value="Processsor 3&amp;nbsp;" style="rounded=1;whiteSpace=wrap;html=1;verticalAlign=top;" vertex="1" parent="1">
          <mxGeometry x="460" y="280" width="180" height="240" as="geometry" />
        </mxCell>
        <mxCell id="lJGqsRxKfi9Q2ybrlhgW-9" value="Add Proccessor&amp;nbsp;" style="shape=cross;whiteSpace=wrap;html=1;verticalAlign=bottom;" vertex="1" parent="1">
          <mxGeometry x="670" y="360" width="80" height="80" as="geometry" />
        </mxCell>
        <mxCell id="lJGqsRxKfi9Q2ybrlhgW-12" value="Logs" style="rounded=1;whiteSpace=wrap;html=1;verticalAlign=top;" vertex="1" parent="1">
          <mxGeometry x="60" y="540" width="690" height="100" as="geometry" />
        </mxCell>
        <mxCell id="lJGqsRxKfi9Q2ybrlhgW-13" value="Component1&amp;nbsp;" style="rounded=1;whiteSpace=wrap;html=1;align=left;" vertex="1" parent="1">
          <mxGeometry x="60" y="330" width="160" height="30" as="geometry" />
        </mxCell>
        <mxCell id="lJGqsRxKfi9Q2ybrlhgW-14" value="" style="html=1;verticalLabelPosition=bottom;labelBackgroundColor=#ffffff;verticalAlign=top;shadow=0;dashed=0;strokeWidth=2;shape=mxgraph.ios7.misc.pause;strokeColor=#0080f0;sketch=0;" vertex="1" parent="1">
          <mxGeometry x="180" y="339" width="12" height="12" as="geometry" />
        </mxCell>
        <mxCell id="lJGqsRxKfi9Q2ybrlhgW-18" value="" style="verticalLabelPosition=bottom;verticalAlign=top;html=1;shadow=0;dashed=0;strokeWidth=1;shape=mxgraph.ios.iDeleteApp;fillColor=#cccccc;fillColor2=#000000;strokeColor=#ffffff;sketch=0;" vertex="1" parent="1">
          <mxGeometry x="200" y="290" width="15" height="15" as="geometry" />
        </mxCell>
        <mxCell id="lJGqsRxKfi9Q2ybrlhgW-19" value="" style="verticalLabelPosition=bottom;verticalAlign=top;html=1;shadow=0;dashed=0;strokeWidth=1;shape=mxgraph.ios.iDeleteApp;fillColor=#cccccc;fillColor2=#000000;strokeColor=#ffffff;sketch=0;" vertex="1" parent="1">
          <mxGeometry x="200" y="337.5" width="15" height="15" as="geometry" />
        </mxCell>
        <mxCell id="lJGqsRxKfi9Q2ybrlhgW-25" value="component2&amp;nbsp;" style="rounded=1;whiteSpace=wrap;html=1;align=left;" vertex="1" parent="1">
          <mxGeometry x="60" y="370" width="160" height="30" as="geometry" />
        </mxCell>
        <mxCell id="lJGqsRxKfi9Q2ybrlhgW-26" value="" style="verticalLabelPosition=bottom;verticalAlign=top;html=1;shadow=0;dashed=0;strokeWidth=1;shape=mxgraph.ios.iArrowIcon;fillColor=#8BbEff;fillColor2=#135Ec8;strokeColor=#ffffff;sketch=0;" vertex="1" parent="1">
          <mxGeometry x="177" y="377.5" width="15" height="15" as="geometry" />
        </mxCell>
        <mxCell id="lJGqsRxKfi9Q2ybrlhgW-27" value="" style="verticalLabelPosition=bottom;verticalAlign=top;html=1;shadow=0;dashed=0;strokeWidth=1;shape=mxgraph.ios.iDeleteApp;fillColor=#cccccc;fillColor2=#000000;strokeColor=#ffffff;sketch=0;" vertex="1" parent="1">
          <mxGeometry x="200" y="377.5" width="15" height="15" as="geometry" />
        </mxCell>
        <mxCell id="lJGqsRxKfi9Q2ybrlhgW-28" value="Component3&amp;nbsp;" style="rounded=1;whiteSpace=wrap;html=1;align=left;" vertex="1" parent="1">
          <mxGeometry x="270" y="330" width="160" height="30" as="geometry" />
        </mxCell>
        <mxCell id="lJGqsRxKfi9Q2ybrlhgW-29" value="Component4&amp;nbsp;" style="rounded=1;whiteSpace=wrap;html=1;align=left;" vertex="1" parent="1">
          <mxGeometry x="270" y="370" width="160" height="30" as="geometry" />
        </mxCell>
        <mxCell id="lJGqsRxKfi9Q2ybrlhgW-30" value="" style="html=1;verticalLabelPosition=bottom;labelBackgroundColor=#ffffff;verticalAlign=top;shadow=0;dashed=0;strokeWidth=2;shape=mxgraph.ios7.misc.pause;strokeColor=#0080f0;sketch=0;" vertex="1" parent="1">
          <mxGeometry x="390" y="340.5" width="12" height="12" as="geometry" />
        </mxCell>
        <mxCell id="lJGqsRxKfi9Q2ybrlhgW-31" value="add component" style="verticalLabelPosition=bottom;verticalAlign=top;html=1;shadow=0;dashed=0;strokeWidth=1;shape=mxgraph.ios.iAddIcon;fillColor=#7AdF78;fillColor2=#1A9917;strokeColor=#ffffff;sketch=0;" vertex="1" parent="1">
          <mxGeometry x="200" y="410" width="15" height="15" as="geometry" />
        </mxCell>
        <mxCell id="lJGqsRxKfi9Q2ybrlhgW-32" value="add component" style="verticalLabelPosition=bottom;verticalAlign=top;html=1;shadow=0;dashed=0;strokeWidth=1;shape=mxgraph.ios.iAddIcon;fillColor=#7AdF78;fillColor2=#1A9917;strokeColor=#ffffff;sketch=0;" vertex="1" parent="1">
          <mxGeometry x="406" y="425" width="15" height="15" as="geometry" />
        </mxCell>
        <mxCell id="lJGqsRxKfi9Q2ybrlhgW-33" value="add component" style="verticalLabelPosition=bottom;verticalAlign=top;html=1;shadow=0;dashed=0;strokeWidth=1;shape=mxgraph.ios.iAddIcon;fillColor=#7AdF78;fillColor2=#1A9917;strokeColor=#ffffff;sketch=0;" vertex="1" parent="1">
          <mxGeometry x="600" y="378.75" width="15" height="12.5" as="geometry" />
        </mxCell>
        <mxCell id="lJGqsRxKfi9Q2ybrlhgW-34" value="Component5" style="rounded=1;whiteSpace=wrap;html=1;align=left;" vertex="1" parent="1">
          <mxGeometry x="470" y="330.5" width="160" height="29" as="geometry" />
        </mxCell>
        <mxCell id="lJGqsRxKfi9Q2ybrlhgW-35" value="" style="verticalLabelPosition=bottom;verticalAlign=top;html=1;shadow=0;dashed=0;strokeWidth=1;shape=mxgraph.ios.iDeleteApp;fillColor=#cccccc;fillColor2=#000000;strokeColor=#ffffff;sketch=0;" vertex="1" parent="1">
          <mxGeometry x="406" y="339" width="15" height="15" as="geometry" />
        </mxCell>
        <mxCell id="lJGqsRxKfi9Q2ybrlhgW-36" value="" style="verticalLabelPosition=bottom;verticalAlign=top;html=1;shadow=0;dashed=0;strokeWidth=1;shape=mxgraph.ios.iDeleteApp;fillColor=#cccccc;fillColor2=#000000;strokeColor=#ffffff;sketch=0;" vertex="1" parent="1">
          <mxGeometry x="406" y="378.75" width="15" height="15" as="geometry" />
        </mxCell>
        <mxCell id="lJGqsRxKfi9Q2ybrlhgW-37" value="" style="verticalLabelPosition=bottom;verticalAlign=top;html=1;shadow=0;dashed=0;strokeWidth=1;shape=mxgraph.ios.iDeleteApp;fillColor=#cccccc;fillColor2=#000000;strokeColor=#ffffff;sketch=0;" vertex="1" parent="1">
          <mxGeometry x="610" y="337.5" width="15" height="15" as="geometry" />
        </mxCell>
        <mxCell id="lJGqsRxKfi9Q2ybrlhgW-38" value="" style="html=1;verticalLabelPosition=bottom;labelBackgroundColor=#ffffff;verticalAlign=top;shadow=0;dashed=0;strokeWidth=2;shape=mxgraph.ios7.misc.pause;strokeColor=#0080f0;sketch=0;" vertex="1" parent="1">
          <mxGeometry x="588" y="340.5" width="12" height="12" as="geometry" />
        </mxCell>
        <mxCell id="lJGqsRxKfi9Q2ybrlhgW-39" value="" style="html=1;verticalLabelPosition=bottom;labelBackgroundColor=#ffffff;verticalAlign=top;shadow=0;dashed=0;strokeWidth=2;shape=mxgraph.ios7.misc.pause;strokeColor=#0080f0;sketch=0;" vertex="1" parent="1">
          <mxGeometry x="390" y="380.5" width="12" height="12" as="geometry" />
        </mxCell>
      </root>
    </mxGraphModel>
  </diagram>
</mxfile>
